<svg width="48" height="48" viewBox="0 0 48 48" fill="none" xmlns="http://www.w3.org/2000/svg">
<circle cx="24" cy="24" r="24" fill="#212121"/>
<path fill-rule="evenodd" clip-rule="evenodd" d="M24 0C10.7451 0 0 10.7451 0 24C0 37.2549 10.7451 48 24 48C37.2549 48 48 37.2549 48 24C48 10.7451 37.2549 0 24 0ZM11.5217 19.8778H16.9606V36.2195H11.5217V19.8778ZM17.3187 14.8226C17.2834 13.2204 16.1377 12 14.277 12C12.4164 12 11.2 13.2204 11.2 14.8226C11.2 16.3918 12.3805 17.6474 14.2065 17.6474H14.2412C16.1377 17.6474 17.3187 16.3918 17.3187 14.8226ZM30.3131 19.4942C33.8922 19.4942 36.5754 21.8302 36.5754 26.8497L36.5752 36.2196H31.1366V27.4767C31.1366 25.2808 30.3494 23.7822 28.3805 23.7822C26.8779 23.7822 25.9828 24.7925 25.5898 25.7682C25.4459 26.1178 25.4107 26.605 25.4107 27.0934V36.22H19.9711C19.9711 36.22 20.0428 21.4117 19.9711 19.8783H25.4107V22.193C26.1326 21.0802 27.4254 19.4942 30.3131 19.4942Z" fill="#CDCDCD"/>
</svg>
